<?xml version="1.0"?>
<svg xmlns="http://www.w3.org/2000/svg" width="30.922" height="27.207" viewBox="0 0 30.922 27.207">
  <path id="Path_100" data-name="Path 100" d="M31.781,16.679c3.869.019,6.686,3.263,8.768,9.718a1.157,1.157,0,0,0,1.189.807,8.54,8.54,0,0,0,5.134-1.83,2.025,2.025,0,0,0,.754-1.19C49.58,12.977,60.186,2.524,62.583.8a.289.289,0,0,0-.064-.5,6.785,6.785,0,0,0-4.468.262C51.95,2.545,43.223,18.493,43.456,19.32,37.382,7.855,32.2,16.262,31.781,16.679Z" transform="translate(-31.781 0)" fill="#f8b818"/>
</svg>
