<?xml version="1.0"?>
<svg xmlns="http://www.w3.org/2000/svg" width="15.386" height="15.361" viewBox="0 0 15.386 15.361">
  <g id="Group_1070" data-name="Group 1070" transform="translate(-4406 -1255.034)">
    <path id="Path_11830" data-name="Path 11830" d="M126.324,327.87l-1.962,1.923-1.962-1.962c-3.308.885-5.731,2.081-5.731,5.659h15.386c0-3.577-2.423-4.774-5.731-5.62Z" transform="translate(4289.33 936.905)" fill="#0f599f"/>
    <path id="Path_11831" data-name="Path 11831" d="M224.769,5.832a4.27,4.27,0,1,0,4.27,4.27A4.284,4.284,0,0,0,224.769,5.832Zm-.231,3.577a.8.8,0,0,0,.385.308,3.173,3.173,0,0,1,.923.615,1.267,1.267,0,0,1,.308.923,1.4,1.4,0,0,1-.308.923,1.369,1.369,0,0,1-.808.423v.654h-.462v-.692a1.335,1.335,0,0,1-.885-.462,1.614,1.614,0,0,1-.346-1.115h.923a1.029,1.029,0,0,0,.154.654.534.534,0,0,0,.385.192.312.312,0,0,0,.308-.154.691.691,0,0,0,.115-.423.619.619,0,0,0-.115-.423.8.8,0,0,0-.385-.308,2.561,2.561,0,0,1-.923-.615,1.333,1.333,0,0,1-.308-.923,1.372,1.372,0,0,1,.308-.885,1.19,1.19,0,0,1,.808-.423V6.986h.462v.692a1.294,1.294,0,0,1,.769.5,1.742,1.742,0,0,1,.269,1.039h-.923a1.081,1.081,0,0,0-.115-.577.317.317,0,0,0-.308-.192.35.35,0,0,0-.308.154.761.761,0,0,0-.077.423A1.61,1.61,0,0,1,224.539,9.409Z" transform="translate(4188.923 1249.202)" fill="#0f599f"/>
  </g>
</svg>
