<?xml version="1.0"?>
<svg xmlns="http://www.w3.org/2000/svg" xmlns:xlink="http://www.w3.org/1999/xlink" width="349.823" height="141.035" viewBox="0 0 349.823 141.035">
  <defs>
    <filter id="Path_275" x="0" y="0" width="349.823" height="141.035" filterUnits="userSpaceOnUse">
      <feOffset dy="5" input="SourceAlpha"/>
      <feGaussianBlur stdDeviation="5" result="blur"/>
      <feFlood flood-opacity="0.161"/>
      <feComposite operator="in" in2="blur"/>
      <feComposite in="SourceGraphic"/>
    </filter>
  </defs>
  <g id="Group_1078" data-name="Group 1078" transform="translate(-4935.088 -755.901)">
    <g id="Group_1077" data-name="Group 1077" transform="translate(4869 126)">
      <g transform="matrix(1, 0, 0, 1, 66.09, 629.9)" filter="url(#Path_275)">
        <path id="Path_275-2" data-name="Path 275" d="M5,0H314.826c2.76,0,5,2.54,5,5.674V87.382c0,3.134-2.237,5.674-5,5.674H252.949l-27,17.979V93.057H5c-2.76,0-5-2.54-5-5.674V5.674C0,2.54,2.237,0,5,0Z" transform="translate(15 10)" fill="#fff"/>
      </g>
    </g>
    <g id="Group_1076" data-name="Group 1076" transform="translate(4851.784 83.064)">
      <g id="noun-campus-3884285" transform="translate(-37.096 686.983)">
        <path id="Path_272" data-name="Path 272" d="M179.294,14A16.924,16.924,0,0,0,162.4,30.894c0,13,11.431,26.2,15.477,30.5a1.956,1.956,0,0,0,2.832,0c4-4.147,14.972-16.792,15.528-29.488A17.227,17.227,0,0,0,179.293,14Zm.05,29.033a12.114,12.114,0,1,1,12.089-12.139A12.088,12.088,0,0,1,179.344,43.033Z" transform="translate(0 0)" fill="#f8b818"/>
        <path id="Path_273" data-name="Path 273" d="M289.98,215.128a3.163,3.163,0,0,1-2.226,0l-4.451-1.77a5.209,5.209,0,0,0-.506,2.327v.657a.729.729,0,0,0,.4.658l5.058,2.023a1.542,1.542,0,0,0,1.163,0L294.482,217a.7.7,0,0,0,.455-.658v-.607a5.8,5.8,0,0,0-.506-2.327Z" transform="translate(-109.523 -181.352)" fill="#f8b818"/>
        <path id="Path_274" data-name="Path 274" d="M251.788,131.574l-8.8,3.49a.389.389,0,0,0,0,.708l8.8,3.49a2.106,2.106,0,0,0,1.366,0l7.031-2.782v1.77h-.1a.239.239,0,0,0-.253.253v.253a.337.337,0,0,0,.2.253l-.455.961a.348.348,0,0,0,.3.506H261.3c.253,0,.455-.3.3-.506l-.455-.961a.231.231,0,0,0,.2-.253V138.5a.239.239,0,0,0-.253-.253h-.1v-2.124l.86-.354a.389.389,0,0,0,0-.708l-8.8-3.49a1.81,1.81,0,0,0-1.264,0Z" transform="translate(-73.101 -106.851)" fill="#f8b818"/>
      </g>
      <g id="Group_964" data-name="Group 964" transform="translate(39 11.289)">
        <path id="Path_11850" data-name="Path 11850" d="M7.536,15V13.816H2.576V4.328H1.248V15Zm4.864.192a3.8,3.8,0,0,0,3.824-4.064,3.83,3.83,0,1,0-7.648,0A3.8,3.8,0,0,0,12.4,15.192Zm0-1.072a2.7,2.7,0,0,1-2.576-2.992A2.7,2.7,0,0,1,12.4,8.152c1.648,0,2.56,1.408,2.56,2.976C14.96,12.712,14.048,14.12,12.4,14.12Zm5.328-2.992a3.822,3.822,0,0,0,3.856,4.064,3.308,3.308,0,0,0,2.832-1.344l-.8-.736a2.33,2.33,0,0,1-1.968,1.008,2.706,2.706,0,0,1-2.672-2.992,2.693,2.693,0,0,1,2.672-2.976A2.292,2.292,0,0,1,23.616,9.16l.8-.736A3.308,3.308,0,0,0,21.584,7.08,3.818,3.818,0,0,0,17.728,11.128ZM32.128,15V9.688c0-1.872-1.36-2.608-2.992-2.608a4.045,4.045,0,0,0-3.088,1.28l.56.832A3.07,3.07,0,0,1,28.976,8.12c1.12,0,1.952.592,1.952,1.632v1.392a3.231,3.231,0,0,0-2.56-1.056,2.531,2.531,0,0,0-2.7,2.544,2.573,2.573,0,0,0,2.7,2.56,3.343,3.343,0,0,0,2.56-1.072V15Zm-1.2-1.632a2.588,2.588,0,0,1-2.128.96,1.7,1.7,0,1,1,0-3.376,2.588,2.588,0,0,1,2.128.96Zm5.552,1.824a1.961,1.961,0,0,0,1.44-.5l-.352-.9a1.158,1.158,0,0,1-.816.32c-.528,0-.784-.416-.784-.992v-4.8h1.568V7.272H35.968V5.16h-1.2V7.272h-1.28V8.328h1.28v5.056A1.581,1.581,0,0,0,36.48,15.192Zm2.3-4.064a3.832,3.832,0,0,0,3.936,4.064,4.2,4.2,0,0,0,3.072-1.184l-.576-.784a3.378,3.378,0,0,1-2.384.976,2.723,2.723,0,0,1-2.784-2.672H46.3v-.3c0-2.32-1.376-4.144-3.712-4.144A3.864,3.864,0,0,0,38.784,11.128Zm3.792-3.056a2.5,2.5,0,0,1,2.544,2.576H40.048A2.578,2.578,0,0,1,42.576,8.072ZM55.04,15V4.328h-1.2V8.44a3.231,3.231,0,0,0-2.608-1.36c-2.032,0-3.44,1.6-3.44,4.064,0,2.512,1.424,4.048,3.44,4.048a3.254,3.254,0,0,0,2.608-1.344V15Zm-1.2-2.1a2.874,2.874,0,0,1-2.32,1.216c-1.552,0-2.48-1.264-2.48-2.976s.928-2.992,2.48-2.992A2.9,2.9,0,0,1,53.84,9.4ZM65.264,15a5.172,5.172,0,0,0,5.472-5.328,5.193,5.193,0,0,0-5.472-5.344H61.616V15Zm-2.32-9.488h2.32a3.9,3.9,0,0,1,4.1,4.16,3.924,3.924,0,0,1-4.1,4.144h-2.32Zm13.2,9.68a3.8,3.8,0,0,0,3.824-4.064,3.83,3.83,0,1,0-7.648,0A3.8,3.8,0,0,0,76.144,15.192Zm0-1.072a2.7,2.7,0,0,1-2.576-2.992,2.7,2.7,0,0,1,2.576-2.976c1.648,0,2.56,1.408,2.56,2.976C78.7,12.712,77.792,14.12,76.144,14.12ZM89.808,15l2.464-7.728H91.024l-1.888,6.16L87.1,7.272H86.08l-2.032,6.16L82.16,7.272H80.912L83.376,15h1.2l2.016-6.208L88.608,15Zm10.272,0V9.576a2.2,2.2,0,0,0-2.464-2.5,3.833,3.833,0,0,0-2.752,1.312V7.272h-1.2V15h1.2V9.352a2.984,2.984,0,0,1,2.288-1.2c1.04,0,1.728.432,1.728,1.792V15Zm4.352.192a1.961,1.961,0,0,0,1.44-.5l-.352-.9a1.158,1.158,0,0,1-.816.32c-.528,0-.784-.416-.784-.992v-4.8h1.568V7.272H103.92V5.16h-1.2V7.272h-1.28V8.328h1.28v5.056A1.581,1.581,0,0,0,104.432,15.192Zm6.128,0a3.8,3.8,0,0,0,3.824-4.064,3.83,3.83,0,1,0-7.648,0A3.8,3.8,0,0,0,110.56,15.192Zm0-1.072a2.7,2.7,0,0,1-2.576-2.992,2.7,2.7,0,0,1,2.576-2.976c1.648,0,2.56,1.408,2.56,2.976C113.12,12.712,112.208,14.12,110.56,14.12Zm13.664.88,2.464-7.728H125.44l-1.888,6.16-2.032-6.16H120.5l-2.032,6.16-1.888-6.16h-1.248L117.792,15h1.2l2.016-6.208L123.024,15ZM134.5,15V9.576a2.2,2.2,0,0,0-2.464-2.5,3.833,3.833,0,0,0-2.752,1.312V7.272h-1.2V15h1.2V9.352a2.984,2.984,0,0,1,2.288-1.2c1.04,0,1.728.432,1.728,1.792V15ZM145.9,15l4.3-10.672h-1.52l-3.6,9.216-3.6-9.216h-1.52L144.256,15Zm10.672,0V9.688c0-1.872-1.36-2.608-2.992-2.608A4.045,4.045,0,0,0,150.5,8.36l.56.832a3.07,3.07,0,0,1,2.368-1.072c1.12,0,1.952.592,1.952,1.632v1.392a3.231,3.231,0,0,0-2.56-1.056,2.531,2.531,0,0,0-2.7,2.544,2.573,2.573,0,0,0,2.7,2.56,3.343,3.343,0,0,0,2.56-1.072V15Zm-1.2-1.632a2.588,2.588,0,0,1-2.128.96,1.7,1.7,0,1,1,0-3.376,2.588,2.588,0,0,1,2.128.96ZM165.392,15V9.576a2.2,2.2,0,0,0-2.464-2.5,3.833,3.833,0,0,0-2.752,1.312V7.272h-1.2V15h1.2V9.352a2.984,2.984,0,0,1,2.288-1.2c1.04,0,1.728.432,1.728,1.792V15Zm1.952-3.872a3.822,3.822,0,0,0,3.856,4.064,3.308,3.308,0,0,0,2.832-1.344l-.8-.736a2.33,2.33,0,0,1-1.968,1.008,2.706,2.706,0,0,1-2.672-2.992,2.693,2.693,0,0,1,2.672-2.976,2.292,2.292,0,0,1,1.968,1.008l.8-.736A3.308,3.308,0,0,0,171.2,7.08,3.818,3.818,0,0,0,167.344,11.128Zm11.744,4.064a3.8,3.8,0,0,0,3.824-4.064,3.83,3.83,0,1,0-7.648,0A3.8,3.8,0,0,0,179.088,15.192Zm0-1.072a2.7,2.7,0,0,1-2.576-2.992,2.7,2.7,0,0,1,2.576-2.976c1.648,0,2.56,1.408,2.56,2.976C181.648,12.712,180.736,14.12,179.088,14.12ZM191.28,15V7.272h-1.2v5.68a2.957,2.957,0,0,1-2.288,1.168c-1.04,0-1.728-.4-1.728-1.76V7.272h-1.2v5.456a2.174,2.174,0,0,0,2.464,2.464,3.78,3.78,0,0,0,2.752-1.28V15Zm5.776,0,3.216-7.728H198.96l-2.56,6.336-2.576-6.336h-1.3L195.744,15Zm4.016-3.872a3.832,3.832,0,0,0,3.936,4.064,4.2,4.2,0,0,0,3.072-1.184l-.576-.784a3.378,3.378,0,0,1-2.384.976,2.723,2.723,0,0,1-2.784-2.672h6.256v-.3c0-2.32-1.376-4.144-3.712-4.144A3.864,3.864,0,0,0,201.072,11.128Zm3.792-3.056a2.5,2.5,0,0,1,2.544,2.576h-5.072A2.578,2.578,0,0,1,204.864,8.072ZM211.728,15V9.528a2.827,2.827,0,0,1,2.1-1.232,2.115,2.115,0,0,1,.48.048V7.112a3.285,3.285,0,0,0-2.576,1.408V7.272h-1.2V15Z" transform="translate(133.712 722.502)" fill="#272727"/>
        <path id="Path_11849" data-name="Path 11849" d="M16.47,28V24.25H8.13c5.37-3.78,8.19-6.75,8.19-10.17,0-3.99-3.39-6.39-7.65-6.39A10.193,10.193,0,0,0,.96,10.96l2.43,2.82a7.135,7.135,0,0,1,5.34-2.31c1.68,0,3.27.87,3.27,2.61,0,2.46-2.4,4.53-10.59,10.56V28Zm10.17-7.26a7.357,7.357,0,0,0,7.68,7.62,6.678,6.678,0,0,0,5.73-2.64l-2.49-2.31a3.657,3.657,0,0,1-3.06,1.56,3.9,3.9,0,0,1-3.93-4.23,3.872,3.872,0,0,1,3.93-4.2,3.584,3.584,0,0,1,3.06,1.56l2.49-2.31a6.678,6.678,0,0,0-5.73-2.64A7.35,7.35,0,0,0,26.64,20.74ZM55.05,28V18.64c0-4.17-3.03-5.49-6.33-5.49a9.505,9.505,0,0,0-6.33,2.28l1.44,2.55a6.1,6.1,0,0,1,4.23-1.71c1.92,0,3.18.96,3.18,2.43v2.01a5.856,5.856,0,0,0-4.59-1.77c-2.31,0-5.04,1.23-5.04,4.62a4.827,4.827,0,0,0,5.04,4.8,6,6,0,0,0,4.59-1.86V28Zm-3.81-3.48a3.811,3.811,0,0,1-3.06,1.26c-1.5,0-2.73-.78-2.73-2.13,0-1.38,1.23-2.19,2.73-2.19a3.811,3.811,0,0,1,3.06,1.26ZM80.64,28V17.53c0-2.97-1.59-4.38-4.26-4.38a6.149,6.149,0,0,0-4.98,2.64,3.834,3.834,0,0,0-4.02-2.64,6.338,6.338,0,0,0-4.74,2.25V13.51H58.83V28h3.81V18.25a3.889,3.889,0,0,1,3-1.71c1.56,0,2.16.96,2.16,2.31V28h3.84V18.22a3.847,3.847,0,0,1,3-1.68c1.56,0,2.16.96,2.16,2.31V28Zm7.56-1.86a5.536,5.536,0,0,0,4.47,2.22c3.72,0,6.42-2.79,6.42-7.62s-2.7-7.59-6.42-7.59a5.6,5.6,0,0,0-4.47,2.19V13.51H84.39V33.52H88.2Zm6.93-5.4c0,2.52-1.47,4.23-3.66,4.23a4.363,4.363,0,0,1-3.27-1.65V18.19a4.267,4.267,0,0,1,3.27-1.65C93.66,16.54,95.13,18.25,95.13,20.74ZM115.53,28V13.51h-3.81v9.81a4.265,4.265,0,0,1-3.3,1.65c-1.62,0-2.67-.66-2.67-2.67V13.51h-3.81V23.8c0,2.82,1.5,4.56,4.68,4.56a6.782,6.782,0,0,0,5.1-2.19V28Zm2.52-1.89a9.754,9.754,0,0,0,6.48,2.25c4.02,0,6.27-1.98,6.27-4.65,0-3.6-3.33-4.26-5.82-4.74-1.62-.33-2.76-.66-2.76-1.56,0-.84.9-1.35,2.28-1.35a6.113,6.113,0,0,1,4.29,1.68l1.5-2.61a9.1,9.1,0,0,0-5.82-1.98c-3.81,0-5.94,2.13-5.94,4.56,0,3.45,3.21,4.05,5.7,4.53,1.65.33,2.91.69,2.91,1.71,0,.9-.78,1.47-2.43,1.47a8.294,8.294,0,0,1-5.01-1.98Zm14.64-5.37c0,4.65,3.33,7.62,7.74,7.62a8.93,8.93,0,0,0,5.97-2.01l-1.68-2.46a5.926,5.926,0,0,1-3.87,1.44,3.9,3.9,0,0,1-4.17-3.36h10.77v-.84c0-4.74-2.94-7.98-7.26-7.98A7.374,7.374,0,0,0,132.69,20.74Zm7.5-4.56a3.356,3.356,0,0,1,3.57,3.21h-7.14A3.482,3.482,0,0,1,140.19,16.18Zm8.76,9.93a9.754,9.754,0,0,0,6.48,2.25c4.02,0,6.27-1.98,6.27-4.65,0-3.6-3.33-4.26-5.82-4.74-1.62-.33-2.76-.66-2.76-1.56,0-.84.9-1.35,2.28-1.35a6.113,6.113,0,0,1,4.29,1.68l1.5-2.61a9.1,9.1,0,0,0-5.82-1.98c-3.81,0-5.94,2.13-5.94,4.56,0,3.45,3.21,4.05,5.7,4.53,1.65.33,2.91.69,2.91,1.71,0,.9-.78,1.47-2.43,1.47a8.294,8.294,0,0,1-5.01-1.98Z" transform="translate(134 688.31)" fill="#272727"/>
      </g>
    </g>
  </g>
</svg>
