<?xml version="1.0"?>
<svg xmlns="http://www.w3.org/2000/svg" width="16.657" height="11.733" viewBox="0 0 16.657 11.733">
  <path id="Path_11826" data-name="Path 11826" d="M102.359,95.762a2.185,2.185,0,0,0-2.187,2.187,2.109,2.109,0,0,0,.711,1.6l-1.689,2.133a1.8,1.8,0,0,0-.444-.036,2.151,2.151,0,0,0-.676.107l-2.08-1.386a2.181,2.181,0,1,0-3.538.551L90.8,103.229a2.19,2.19,0,1,0,1.493,2.08,2.346,2.346,0,0,0-.356-1.209l1.813-2.542a1.534,1.534,0,0,0,.284.018,2.181,2.181,0,0,0,.907-.2l1.973,1.3a2.188,2.188,0,1,0,3.538-.267l1.813-2.311h.124a2.185,2.185,0,0,0,2.187-2.187,2.233,2.233,0,0,0-2.222-2.151Z" transform="translate(-87.924 -95.762)" fill="#f8b818"/>
</svg>
