<?xml version="1.0"?>
<svg xmlns="http://www.w3.org/2000/svg" width="490" height="490" viewBox="0 0 490 490">
  <g id="noun-target-4795622" transform="translate(-105 -35)">
    <path id="Path_290" data-name="Path 290" d="M595,266H572.25A222.546,222.546,0,0,0,364,57.75V35H336V57.75A222.546,222.546,0,0,0,127.75,266H105v28h22.75C134.75,406,224,493.5,336,502.25V525h28V502.25C476,495.25,563.5,406,572.25,294H595ZM364,472.5V455H336v17.5c-96.25-7-171.5-82.25-178.5-178.5H175V266H157.5c7-96.25,82.25-171.5,178.5-178.5V105h28V87.5c94.5,7,171.5,84,178.5,178.5H525v28h17.5C535.5,390.25,460.25,465.5,364,472.5Z" fill="#3e806b"/>
    <path id="Path_291" data-name="Path 291" d="M392,269.5c8.75-10.5,14-22.75,14-36.75,0-31.5-24.5-56-56-56s-56,24.5-56,56c0,14,5.25,26.25,14,36.75a107.768,107.768,0,0,0-66.5,99.75C241.5,378,302.75,408.6,350,408.6S458.5,376.25,458.5,369.25A107.768,107.768,0,0,0,392,269.5Z" fill="#3e806b"/>
  </g>
</svg>
