<?xml version="1.0"?>
<svg xmlns="http://www.w3.org/2000/svg" width="11.444" height="15.864" viewBox="0 0 11.444 15.864">
  <g id="noun-flag-1064920" transform="translate(-198.818 -35.484)">
    <path id="Path_11825" data-name="Path 11825" d="M199.237,33.383a.424.424,0,0,0-.417.431c-.005,6.14,0,9.719,0,15a.423.423,0,1,0,.846,0v-7.07h10.173a.423.423,0,0,0,.395-.272.426.426,0,0,0-.111-.468L207,38.177l3.123-2.873a.425.425,0,0,0-.286-.738H199.666v-.752a.424.424,0,0,0-.429-.431Z" transform="translate(0 2.101)" fill="#f26268" fill-rule="evenodd"/>
  </g>
</svg>
