<?xml version="1.0"?>
<svg xmlns="http://www.w3.org/2000/svg" width="17.797" height="17.684" viewBox="0 0 17.797 17.684">
  <g id="Group_1071" data-name="Group 1071" transform="translate(-4406 -1169.873)">
    <path id="Path_11827" data-name="Path 11827" d="M136.459,66.011l.511-.511-.993-1h0a6.5,6.5,0,0,0,.916-1.687,6.637,6.637,0,1,0-3.966,3.957,6.5,6.5,0,0,0,1.687-.916l1,.993.511-.511Zm-8.892-4.35c0-.949.764-1.321,1.807-1.446h0a1.647,1.647,0,0,0,2.535,0c1.043.13,1.807.5,1.807,1.446a3.078,3.078,0,1,1-6.15,0Zm1.419-3.894a1.659,1.659,0,0,1,3.316,0,2.506,2.506,0,0,1-.981,1.969,1.138,1.138,0,0,1-1.35,0,2.506,2.506,0,0,1-.986-1.969Z" transform="translate(4281.976 1115.972)" fill="#68c4a1"/>
    <path id="Path_11828" data-name="Path 11828" d="M402.189,330.266a.359.359,0,0,0-.511,0l-1.414,1.415a.359.359,0,0,0,0,.511l3.775,3.658a.359.359,0,0,0,.255.106.364.364,0,0,0,.255-.106l1.415-1.415a.359.359,0,0,0,0-.511Z" transform="translate(4017.725 851.601)" fill="#68c4a1"/>
  </g>
</svg>
