<?xml version="1.0"?>
<svg xmlns="http://www.w3.org/2000/svg" width="47.124" height="29.537" viewBox="0 0 47.124 29.537">
  <g id="noun-student-1797806" transform="translate(-69.999 -104.935)">
    <path id="Path_11813" data-name="Path 11813" d="M116.4,113.9l-22.491-8.8h0a.978.978,0,0,0-.7,0l-22.491,8.8h0a.978.978,0,0,0,0,1.819l7.2,2.817v8.909c0,2.347,8.449,6.923,15.647,6.923s15.647-4.577,15.647-6.924V118.54l7.2-2.817a.978.978,0,0,0,0-1.819Zm-9.153,13.436c-.626,1.076-6.953,5.075-13.69,5.075s-13.065-4-13.69-5.075v-8.029l13.338,5.212a.977.977,0,0,0,.7,0l13.338-5.212Zm-13.69-4.772-19.812-7.755,19.812-7.755,19.812,7.755Z" transform="translate(0 0)" fill="#68c4a1" stroke="#68c4a1" stroke-width="0.2"/>
  </g>
</svg>
