<?xml version="1.0"?>
<svg xmlns="http://www.w3.org/2000/svg" width="15.449" height="15.801" viewBox="0 0 15.449 15.801">
  <path id="noun-chat-bubble-4560301" d="M140.348,57.673A7.715,7.715,0,0,0,134.1,69.929l-.914,2.669a.655.655,0,0,0,.166.69.665.665,0,0,0,.7.139l2.858-1.108h.007a7.724,7.724,0,1,0,3.43-14.647ZM137.031,64.4a1,1,0,1,1-1,1A1,1,0,0,1,137.031,64.4Zm3.317,1.99a1,1,0,1,1,.988-1A1,1,0,0,1,140.348,66.389Zm3.317,0a1,1,0,1,1,.988-1A1,1,0,0,1,143.665,66.389Z" transform="translate(-132.62 -57.673)" fill="#edc7d0"/>
</svg>
