<?xml version="1.0"?>
<svg xmlns="http://www.w3.org/2000/svg" width="16.281" height="19.097" viewBox="0 0 16.281 19.097">
  <path id="Path_11839" data-name="Path 11839" d="M127.6,13.374a1.356,1.356,0,0,0-1.259-.851,2.107,2.107,0,0,0-1.056.339,10.75,10.75,0,0,0-1.237.891,5.545,5.545,0,0,1-.844.594,5.623,5.623,0,0,1-.851.228H122.3a1.96,1.96,0,0,0-2.227-1.628h-1.826a18.613,18.613,0,0,1,.564-2.917V10a2.33,2.33,0,0,1,.322-.4,1.307,1.307,0,0,1,.383-.265.742.742,0,0,0,.287.324,1.865,1.865,0,0,0,1.163.4,1.318,1.318,0,0,0,.611-.116,1.823,1.823,0,0,1,.2-.084.807.807,0,0,1,.544.027l.366.166-.171-.364h0a3.2,3.2,0,0,0-.844-1.039,1.429,1.429,0,0,0-2.106.433l-.037.106h0a1.9,1.9,0,0,0-.495.329c-.047.044-.089.089-.129.134a8.719,8.719,0,0,0,.223-1.71,4.014,4.014,0,0,1,.562-1.024,2.3,2.3,0,0,1,.814-.705,1.371,1.371,0,0,0,.621.495,3.426,3.426,0,0,0,2.242.408,2.443,2.443,0,0,0,1.066-.426,3.829,3.829,0,0,1,.336-.21,1.515,1.515,0,0,1,.99-.082l.718.2-.418-.614a5.939,5.939,0,0,0-1.836-1.7,2.439,2.439,0,0,0-1.212-.312A2.5,2.5,0,0,0,120.5,5.686l-.037.2h0a3.682,3.682,0,0,0-.99.864,4.666,4.666,0,0,0-.344.542,7,7,0,0,0-.087-.893l.171-.082.233-.213a3.311,3.311,0,0,0,.146-4.068h0A3.275,3.275,0,0,0,118.361.893,7.851,7.851,0,0,0,115.144.03L114.154,0l.742.668a2.056,2.056,0,0,1,.621,1.193v.529h0a3.288,3.288,0,0,0,.275,1.507,4.621,4.621,0,0,0,2.059,2.247,2.473,2.473,0,0,0,.839.332,8.449,8.449,0,0,1-.151,3.175l-.082.317c-.052.21-.109.433-.163.663h0a2.767,2.767,0,0,0-.146-.386c-.067-.143-.141-.285-.22-.423l.042-.126a1.431,1.431,0,0,0-.826-1.556h0a1.423,1.423,0,0,0-.705-.168,3.425,3.425,0,0,0-1.4.374l-.391.2.421.092a.886.886,0,0,1,.495.312,1.833,1.833,0,0,1,.114.2,1.426,1.426,0,0,0,.431.495,2,2,0,0,0,1.262.408.805.805,0,0,0,.448-.089c.054.094.134.247.186.351a2.371,2.371,0,0,1,.213.621,14.744,14.744,0,0,0-.334,1.979,3.781,3.781,0,0,0-1.979-.495,4.2,4.2,0,0,0-1.9.4,1.281,1.281,0,0,1-.495.153h-.621V12.6h-1.457v5.458h1.457V17.7h1.462l4.751,1.336a2.261,2.261,0,0,0,1.371-.109l3.959-1.838.047-.022.042-.035,2.994-2.682a.866.866,0,0,0,.089-.972Z" transform="translate(-111.433 0.005)" fill="#0f5556"/>
</svg>
