<?xml version="1.0"?>
<svg xmlns="http://www.w3.org/2000/svg" width="15.622" height="15.622" viewBox="0 0 15.622 15.622">
  <path id="Path_11832" data-name="Path 11832" d="M406.648,133.62a6.5,6.5,0,0,0-.787-1.893l.739-1.232-1.7-1.7-1.232.739a6.667,6.667,0,0,0-1.893-.787l-.343-1.388h-2.4l-.349,1.394a6.505,6.505,0,0,0-1.893.787l-1.232-.739-1.7,1.7.739,1.232a6.665,6.665,0,0,0-.787,1.893l-1.388.343v2.4l1.394.349a6.5,6.5,0,0,0,.787,1.893l-.739,1.232,1.7,1.7,1.232-.739a6.665,6.665,0,0,0,1.893.787l.343,1.388h2.4l.349-1.394a6.5,6.5,0,0,0,1.893-.787l1.232.739,1.7-1.7-.739-1.232a6.664,6.664,0,0,0,.787-1.893l1.388-.343v-2.4Zm-6.417,5.155a3.605,3.605,0,1,1,3.605-3.605A3.608,3.608,0,0,1,400.231,138.775Z" transform="translate(-392.42 -127.359)" fill="#ffb35a"/>
</svg>
